<?xml version="1.0" encoding="UTF-8" standalone="no"?>
<svg
   height="200px"
   width="200px"
   version="1.1"
   id="Layer_1"
   viewBox="0 0 502.4 502.4"
   xml:space="preserve"
   fill="#000000"
   sodipodi:docname="happy-egg.mono.svg"
   inkscape:version="1.3.2 (091e20ef0f, 2023-11-25, custom)"
   xmlns:inkscape="http://www.inkscape.org/namespaces/inkscape"
   xmlns:sodipodi="http://sodipodi.sourceforge.net/DTD/sodipodi-0.dtd"
   xmlns="http://www.w3.org/2000/svg"
   xmlns:svg="http://www.w3.org/2000/svg"><defs
   id="defs29" /><sodipodi:namedview
   id="namedview29"
   pagecolor="#505050"
   bordercolor="#eeeeee"
   borderopacity="1"
   inkscape:showpageshadow="0"
   inkscape:pageopacity="0"
   inkscape:pagecheckerboard="0"
   inkscape:deskcolor="#505050"
   inkscape:zoom="5.85"
   inkscape:cx="99.91453"
   inkscape:cy="100"
   inkscape:window-width="2560"
   inkscape:window-height="1367"
   inkscape:window-x="0"
   inkscape:window-y="0"
   inkscape:window-maximized="1"
   inkscape:current-layer="SVGRepo_iconCarrier" />
  <g
   id="SVGRepo_bgCarrier"
   stroke-width="0" />
  <g
   id="SVGRepo_tracerCarrier"
   stroke-linecap="round"
   stroke-linejoin="round" />
  <g
   id="SVGRepo_iconCarrier">
    <path
   style="fill:#000000;fill-opacity:1"
   d="M91.2,290.4c0-140.8,76-290.4,160-290.4s160,148.8,160,290.4s-76,172.8-160,172.8 S91.2,431.2,91.2,290.4z"
   id="path1" />
    <path
   style="fill:#000000;stroke:none;stroke-opacity:1;fill-opacity:1"
   d="M251.2,463.2c-83.2,0-160-32-160-172.8S168,0,251.2,0s160,148.8,160,290.4"
   id="path2" />
    <path
   style="fill:#000000;fill-opacity:1;stroke:#000000;stroke-opacity:1"
   d="M251.2,463.2c-83.2,0-160-32-160-172.8S168,0,251.2,0"
   id="path3" />
    <ellipse
   style="fill:#000000;fill-opacity:1"
   cx="251.2"
   cy="490.4"
   rx="104"
   ry="12"
   id="ellipse3" />
    <g
   id="g4">
      <polyline
   style="fill:none"
   points="91.2,315.2 148.8,315.2 184.8,350.4 187.2,350.4 187.2,350.4 235.2,349.6 235.2,349.6 188,344.8 155.2,310.4 155.2,310.4 "
   id="polyline3">
      </polyline>
      <polyline
   style="fill:none"
   points="411.2,315.2 353.6,315.2 317.6,350.4 315.2,350.4 315.2,350.4 267.2,349.6 267.2,349.6 314.4,344.8 347.2,310.4 347.2,310.4 "
   id="polyline4">
      </polyline>
      <path
   style="fill:#000000;fill-opacity:1"
   d="M410.4,291.2L410.4,291.2c0.8-0.8,1.6-0.8,1.6-1.6c0-93.6-32-184.8-80-239.2v212l30.4,29.6h48V291.2 z"
   id="path4" />
    </g>
    <g
   id="g6">
      <path
   style="fill:#000000;fill-opacity:1"
   d="M410.4,292L410.4,292c0.8-0.8,0.8-1.6,0.8-2.4c0-93.6-32-189.6-80-244v213.6"
   id="path5" />
      <path
   style="fill:none"
   d="M92.8,291.2L92.8,291.2c-0.8-0.8-1.6-0.8-1.6-1.6c0-93.6,32-177.6,80-232.8v204.8l-29.6,29.6H92.8z"
   id="path6" />
    </g>
    <path
   style="fill:#000000;fill-opacity:1"
   d="M92,292L92,292c0-0.8-0.8-1.6-0.8-2.4c0-93.6,32-189.6,80-244v213.6"
   id="path7" />
    <circle
   style="fill:#000000;stroke:#000000;stroke-opacity:1;fill-opacity:1"
   cx="454.4"
   cy="157.6"
   r="40.8"
   id="circle7" />
    <g
   id="g8"
   style="stroke:#000000;stroke-opacity:1;fill:#000000;fill-opacity:1">
      <path
   style="fill:#000000;stroke:#000000;stroke-opacity:1;fill-opacity:1"
   d="M454.4,198.4c-22.4,0-40.8-18.4-40.8-40.8s18.4-40.8,40.8-40.8"
   id="path8" />
      <circle
   style="fill:#000000;stroke:#000000;stroke-opacity:1;fill-opacity:1"
   cx="454.4"
   cy="216"
   r="9.6"
   id="circle8" />
    </g>
    <polyline
   style="fill:#000000;stroke:#000000;stroke-opacity:1;fill-opacity:1"
   points="451.2,227.2 451.2,267.2 427.2,267.2 427.2,299.2 411.2,299.2 "
   id="polyline8" />
    <ellipse
   transform="matrix(0.0789 0.9969 -0.9969 0.0789 627.9552 -172.9957)"
   style="fill:#000000;stroke:#000000;stroke-opacity:1;fill-opacity:1"
   cx="407.597"
   cy="253.328"
   rx="40.001"
   ry="13.6"
   id="ellipse8" />
    <ellipse
   transform="matrix(0.0788 0.9969 -0.9969 0.0788 631.4185 -177.6087)"
   style="fill:#000000;stroke:#000000;stroke-opacity:1;fill-opacity:1"
   cx="411.81"
   cy="252.845"
   rx="24"
   ry="5.6"
   id="ellipse9" />
    <g
   id="g11"
   style="stroke:#000000;stroke-opacity:1;fill:#000000;fill-opacity:1">
      <circle
   style="fill:#000000;stroke:#000000;stroke-opacity:1;fill-opacity:1"
   cx="377.6"
   cy="252"
   r="3.2"
   id="circle9" />
      <circle
   style="fill:#000000;stroke:#000000;stroke-opacity:1;fill-opacity:1"
   cx="364.8"
   cy="256"
   r="3.2"
   id="circle10" />
      <circle
   style="fill:#000000;stroke:#000000;stroke-opacity:1;fill-opacity:1"
   cx="352"
   cy="259.2"
   r="3.2"
   id="circle11" />
    </g>
    <path
   style="fill:#000000;stroke:#000000;stroke-opacity:1;fill-opacity:1"
   d="M475.2,143.2c0,2.4-1.6,4-4,4h-32c-2.4,0-4-1.6-4-4l0,0c0-2.4,1.6-4,4-4h32 C473.6,139.2,475.2,140.8,475.2,143.2L475.2,143.2z"
   id="path11">
    </path>
    <circle
   style="fill:#000000;fill-opacity:1"
   cx="48"
   cy="157.6"
   r="40.8"
   id="circle12" />
    <path
   style="fill:#000000;fill-opacity:1"
   d="M48,198.4c22.4,0,40.8-18.4,40.8-40.8S70.4,116.8,48,116.8"
   id="path12" />
    <circle
   style="fill:#000000;fill-opacity:1"
   cx="48"
   cy="216"
   r="9.6"
   id="circle13" />
    <polyline
   style="fill:#000000;fill-opacity:1"
   points="51.2,227.2 51.2,267.2 75.2,267.2 75.2,299.2 91.2,299.2 "
   id="polyline13" />
    <ellipse
   transform="matrix(0.0789 -0.9969 0.9969 0.0789 -165.1524 328.4951)"
   style="fill:#000000;fill-opacity:1"
   cx="95.193"
   cy="253.622"
   rx="40.001"
   ry="13.6"
   id="ellipse13" />
    <ellipse
   transform="matrix(0.0788 -0.9969 0.9969 0.0788 -169.5547 323.7074)"
   style="fill:#000000;fill-opacity:1"
   cx="90.375"
   cy="253.597"
   rx="24"
   ry="5.6"
   id="ellipse14" />
    <g
   id="g16"
   style="fill:#000000;fill-opacity:1">
      <circle
   style="fill:#000000;fill-opacity:1"
   cx="124.8"
   cy="252"
   r="3.2"
   id="circle14" />
      <circle
   style="fill:#000000;fill-opacity:1"
   cx="137.6"
   cy="256"
   r="3.2"
   id="circle15" />
      <circle
   style="fill:#000000;fill-opacity:1"
   cx="150.4"
   cy="259.2"
   r="3.2"
   id="circle16" />
    </g>
    <g
   id="g17">
      <path
   style="fill:none"
   d="M67.2,143.2c0-2.4-1.6-4-4-4h-32c-2.4,0-4,1.6-4,4l0,0c0,2.4,1.6,4,4,4h32 C65.6,147.2,67.2,145.6,67.2,143.2L67.2,143.2z"
   id="path16">
      </path>
      <path
   style="fill:#ffffff;fill-opacity:1"
   d="M212.8,125.6c0,14.4-11.2,35.2-25.6,35.2c-13.6,0-25.6-20.8-25.6-35.2c0-13.6,11.2-25.6,25.6-25.6 C201.6,100,212.8,111.2,212.8,125.6z"
   id="path17">
      </path>
    </g>
    <circle
   style="fill:none;fill-opacity:1"
   cx="188"
   cy="125.6"
   r="25.6"
   id="circle17" />
    <path
   style="fill:none;fill-opacity:1"
   d="m 169.6,107.2 c 9.6,-9.6 25.6,-9.6 36,0 2.39709,2.2127 4.19917,4.7654 5.43564,7.51116 4.12807,9.167 1.95166,20.48593 -5.43564,28.48884"
   id="path18"
   sodipodi:nodetypes="cssc" />
    <circle
   style="fill:#000000;fill-opacity:1"
   cx="188"
   cy="125.6"
   r="14.4"
   id="circle18" />
    <path
   style="fill:#000000;fill-opacity:1"
   d="M188,140c-8,0-14.4-6.4-14.4-14.4s6.4-14.4,14.4-14.4"
   id="path19" />
    <g
   id="g20">
      <circle
   style="fill:none"
   cx="176.8"
   cy="114.4"
   r="8.8"
   id="circle19" />
      <circle
   style="fill:none"
   cx="202.4"
   cy="138.4"
   r="4"
   id="circle20" />
    </g>
    <path
   style="fill:#ffffff;fill-opacity:1"
   d="M340,125.6c0,14.4-11.2,35.2-25.6,35.2c-13.6,0-25.6-20.8-25.6-35.2c0-13.6,11.2-25.6,25.6-25.6 C328.8,100,340,111.2,340,125.6z"
   id="path20">
    </path>
    <circle
   style="fill:none;fill-opacity:1"
   cx="314.4"
   cy="125.6"
   r="25.6"
   id="circle21" />
    <path
   style="fill:none;fill-opacity:1"
   d="M296.8,107.2c9.6-9.6,25.6-9.6,36,0c9.6,9.6,9.6,25.6,0,36"
   id="path21" />
    <circle
   style="fill:#000000;fill-opacity:1"
   cx="314.4"
   cy="125.6"
   r="14.4"
   id="circle22" />
    <path
   style="fill:#000000;fill-opacity:1"
   d="M314.4,140c-8,0-14.4-6.4-14.4-14.4s6.4-14.4,14.4-14.4"
   id="path22" />
    <g
   id="g24">
      <circle
   style="fill:none"
   cx="303.2"
   cy="114.4"
   r="8.8"
   id="circle23" />
      <circle
   style="fill:none"
   cx="328.8"
   cy="138.4"
   r="4"
   id="circle24" />
    </g>
    <g
   id="g29">
      <polygon
   style="fill:#ffffff;fill-opacity:1"
   points="267.2,160.8 251.2,176.8 235.2,160.8 251.2,160 "
   id="polygon24" />
      <circle
   style="fill:none"
   cx="251.2"
   cy="14.4"
   r="3.2"
   id="circle25" />
      <circle
   style="fill:none"
   cx="251.2"
   cy="28.8"
   r="3.2"
   id="circle26" />
      <circle
   style="fill:none"
   cx="251.2"
   cy="44"
   r="3.2"
   id="circle27" />
      <circle
   style="fill:none"
   cx="251.2"
   cy="58.4"
   r="3.2"
   id="circle28" />
      <circle
   style="fill:none"
   cx="251.2"
   cy="72.8"
   r="3.2"
   id="circle29" />
    </g>
  </g>
</svg>
